<?xml version="1.0" encoding="UTF-8" standalone="no"?>
<!DOCTYPE svg PUBLIC "-//W3C//DTD SVG 1.1//EN" "http://www.w3.org/Graphics/SVG/1.1/DTD/svg11.dtd">
<svg width="100%" height="100%" viewBox="0 0 921 927" version="1.1" xmlns="http://www.w3.org/2000/svg" xmlns:xlink="http://www.w3.org/1999/xlink" xml:space="preserve" xmlns:serif="http://www.serif.com/" style="fill-rule:evenodd;clip-rule:evenodd;stroke-linejoin:round;stroke-miterlimit:2;">
    <g transform="matrix(1,0,0,1,-563,-309)">
        <g transform="matrix(1,0,0,1,98.822,350.052)">
            <rect x="475.12" y="-32.11" width="900.116" height="900.116" style="fill:rgb(229,190,70);"/>
        </g>
        <g>
            <g transform="matrix(4.50947,0,0,4.50947,-790.829,-2470.6)">
                <text x="330.676px" y="767.406px" style="font-family:'Didot-Bold', 'Didot';font-weight:700;font-size:24px;">BunkerStore</text>
            </g>
            <g transform="matrix(1.06922,0,0,1.0571,-80.767,-53.604)">
                <rect x="1156.88" y="929.964" width="12.349" height="8.84"/>
            </g>
        </g>
        <g transform="matrix(-1,0,0,1,1949.18,363.864)">
            <g transform="matrix(1.25851e-16,2.05531,-2.05531,1.25851e-16,2714.36,-700.896)">
                <path d="M503.074,993.578C501.808,995.504 501.39,997.867 501.916,1000.11C502.443,1002.36 503.869,1004.28 505.859,1005.45C526.994,1017.66 550.701,1024.75 575.07,1026.13C577.369,1026.26 579.616,1025.43 581.286,1023.84C582.956,1022.26 583.902,1020.06 583.902,1017.75C583.915,1008.02 583.915,992.301 583.915,982.799C583.915,978.394 580.513,974.736 576.119,974.418C561.116,973.308 546.533,968.947 533.376,961.651C529.536,959.509 524.694,960.695 522.28,964.37C517.049,972.304 508.421,985.439 503.074,993.578Z"/>
            </g>
            <g transform="matrix(-1.25978,1.62396,-1.62396,-1.25978,3074.47,647.637)">
                <path d="M503.074,993.578C501.808,995.504 501.39,997.867 501.916,1000.11C502.443,1002.36 503.869,1004.28 505.859,1005.45C526.994,1017.66 550.701,1024.75 575.07,1026.13C577.369,1026.26 579.616,1025.43 581.286,1023.84C582.956,1022.26 583.902,1020.06 583.902,1017.75C583.915,1008.02 583.915,992.301 583.915,982.799C583.914,978.394 580.512,974.737 576.119,974.418C561.116,973.308 546.533,968.947 533.376,961.651C529.536,959.509 524.694,960.695 522.28,964.37C517.049,972.304 508.421,985.439 503.074,993.578Z"/>
            </g>
            <g transform="matrix(-1.93083,0.517365,-0.517365,-1.93083,2504.52,1854.01)">
                <path d="M509.653,997.364C508.454,999.413 508.15,1001.87 508.814,1004.14C509.478,1006.43 511.05,1008.33 513.162,1009.42C532.337,1019.17 553.322,1024.86 574.798,1026.12C577.166,1026.25 579.482,1025.4 581.205,1023.77C582.927,1022.14 583.902,1019.87 583.902,1017.5C583.915,1004.65 583.915,981.023 583.915,968.532C583.914,964.055 580.494,960.319 576.033,959.926C565.459,959.008 555.133,956.208 545.538,951.671C541.497,949.76 536.666,951.253 534.407,955.11C528.084,965.882 516.149,986.269 509.653,997.364Z"/>
            </g>
            <g transform="matrix(-1.25851e-16,2.05531,2.05531,1.25851e-16,-864.002,-700.896)">
                <path d="M503.074,993.578C501.808,995.504 501.39,997.867 501.916,1000.11C502.443,1002.36 503.869,1004.28 505.859,1005.45C526.994,1017.66 550.701,1024.75 575.07,1026.13C577.369,1026.26 579.616,1025.43 581.286,1023.84C582.956,1022.26 583.902,1020.06 583.902,1017.75C583.915,1008.02 583.915,992.301 583.915,982.799C583.915,978.394 580.513,974.736 576.119,974.418C561.116,973.308 546.533,968.947 533.376,961.651C529.536,959.509 524.694,960.695 522.28,964.37C517.049,972.304 508.421,985.439 503.074,993.578Z"/>
            </g>
            <g transform="matrix(1.25978,1.62396,1.62396,-1.25978,-1224.11,647.637)">
                <path d="M503.074,993.578C501.808,995.504 501.39,997.867 501.916,1000.11C502.443,1002.36 503.869,1004.28 505.859,1005.45C526.994,1017.66 550.701,1024.75 575.07,1026.13C577.369,1026.26 579.616,1025.43 581.286,1023.84C582.956,1022.26 583.902,1020.06 583.902,1017.75C583.915,1008.02 583.915,992.301 583.915,982.799C583.914,978.394 580.512,974.737 576.119,974.418C561.116,973.308 546.533,968.947 533.376,961.651C529.536,959.509 524.694,960.695 522.28,964.37C517.049,972.304 508.421,985.439 503.074,993.578Z"/>
            </g>
        </g>
        <g transform="matrix(-1,0,0,1,1949.18,363.864)">
            <g transform="matrix(1.25851e-16,2.05531,-2.05531,1.25851e-16,2714.36,-700.896)">
                <path d="M503.074,993.578C501.808,995.504 501.39,997.867 501.916,1000.11C502.443,1002.36 503.869,1004.28 505.859,1005.45C526.994,1017.66 550.701,1024.75 575.07,1026.13C577.369,1026.26 579.616,1025.43 581.286,1023.84C582.956,1022.26 583.902,1020.06 583.902,1017.75C583.915,1008.02 583.915,992.301 583.915,982.799C583.915,978.394 580.513,974.736 576.119,974.418C561.116,973.308 546.533,968.947 533.376,961.651C529.536,959.509 524.694,960.695 522.28,964.37C517.049,972.304 508.421,985.439 503.074,993.578Z"/>
            </g>
            <g transform="matrix(-1.25978,1.62396,-1.62396,-1.25978,3074.47,647.637)">
                <path d="M503.074,993.578C501.808,995.504 501.39,997.867 501.916,1000.11C502.443,1002.36 503.869,1004.28 505.859,1005.45C526.994,1017.66 550.701,1024.75 575.07,1026.13C577.369,1026.26 579.616,1025.43 581.286,1023.84C582.956,1022.26 583.902,1020.06 583.902,1017.75C583.915,1008.02 583.915,992.301 583.915,982.799C583.914,978.394 580.512,974.737 576.119,974.418C561.116,973.308 546.533,968.947 533.376,961.651C529.536,959.509 524.694,960.695 522.28,964.37C517.049,972.304 508.421,985.439 503.074,993.578Z"/>
            </g>
            <g transform="matrix(-1.93083,0.517365,-0.517365,-1.93083,2504.52,1854.01)">
                <path d="M509.653,997.364C508.454,999.413 508.15,1001.87 508.814,1004.14C509.478,1006.43 511.05,1008.33 513.162,1009.42C532.337,1019.17 553.322,1024.86 574.798,1026.12C577.166,1026.25 579.482,1025.4 581.205,1023.77C582.927,1022.14 583.902,1019.87 583.902,1017.5C583.915,1004.65 583.915,981.023 583.915,968.532C583.914,964.055 580.494,960.319 576.033,959.926C565.459,959.008 555.133,956.208 545.538,951.671C541.497,949.76 536.666,951.253 534.407,955.11C528.084,965.882 516.149,986.269 509.653,997.364Z"/>
            </g>
            <g transform="matrix(-1.25851e-16,2.05531,2.05531,1.25851e-16,-864.002,-700.896)">
                <path d="M503.074,993.578C501.808,995.504 501.39,997.867 501.916,1000.11C502.443,1002.36 503.869,1004.28 505.859,1005.45C526.994,1017.66 550.701,1024.75 575.07,1026.13C577.369,1026.26 579.616,1025.43 581.286,1023.84C582.956,1022.26 583.902,1020.06 583.902,1017.75C583.915,1008.02 583.915,992.301 583.915,982.799C583.915,978.394 580.513,974.736 576.119,974.418C561.116,973.308 546.533,968.947 533.376,961.651C529.536,959.509 524.694,960.695 522.28,964.37C517.049,972.304 508.421,985.439 503.074,993.578Z"/>
            </g>
            <g transform="matrix(1.25978,1.62396,1.62396,-1.25978,-1224.11,647.637)">
                <path d="M503.074,993.578C501.808,995.504 501.39,997.867 501.916,1000.11C502.443,1002.36 503.869,1004.28 505.859,1005.45C526.994,1017.66 550.701,1024.75 575.07,1026.13C577.369,1026.26 579.616,1025.43 581.286,1023.84C582.956,1022.26 583.902,1020.06 583.902,1017.75C583.915,1008.02 583.915,992.301 583.915,982.799C583.914,978.394 580.512,974.737 576.119,974.418C561.116,973.308 546.533,968.947 533.376,961.651C529.536,959.509 524.694,960.695 522.28,964.37C517.049,972.304 508.421,985.439 503.074,993.578Z"/>
            </g>
        </g>
    </g>
</svg>
